<svg xmlns="http://www.w3.org/2000/svg" viewBox="0 0 1800 1000" role="img" aria-labelledby="title desc">
  <title id="title">Wellness dashboard workspace</title>
  <desc id="desc">Abstract workplace wellness scene with desks, plants, sunlight, and dashboard panels.</desc>
  <defs>
    <linearGradient id="sky" x1="0" x2="1" y1="0" y2="1">
      <stop offset="0" stop-color="#d8efe5"/>
      <stop offset="0.55" stop-color="#9bc9b5"/>
      <stop offset="1" stop-color="#457b74"/>
    </linearGradient>
    <linearGradient id="floor" x1="0" x2="0" y1="0" y2="1">
      <stop offset="0" stop-color="#f4f0df"/>
      <stop offset="1" stop-color="#d7c69e"/>
    </linearGradient>
  </defs>
  <rect width="1800" height="1000" fill="url(#sky)"/>
  <rect y="650" width="1800" height="350" fill="url(#floor)"/>
  <path d="M0 625 C260 530 480 700 720 595 C940 495 1140 585 1350 525 C1530 475 1675 515 1800 465 L1800 1000 L0 1000 Z" fill="#eef7ef" opacity="0.66"/>
  <g opacity="0.78">
    <rect x="150" y="150" width="360" height="260" rx="28" fill="#ffffff"/>
    <rect x="190" y="205" width="250" height="24" rx="12" fill="#0f766e"/>
    <rect x="190" y="270" width="90" height="80" rx="12" fill="#a7f3d0"/>
    <rect x="305" y="240" width="90" height="110" rx="12" fill="#5eead4"/>
    <rect x="420" y="290" width="45" height="60" rx="12" fill="#14b8a6"/>
  </g>
  <g opacity="0.84">
    <rect x="1175" y="115" width="420" height="300" rx="32" fill="#ffffff"/>
    <circle cx="1285" cy="255" r="78" fill="#ccfbf1"/>
    <path d="M1285 177 A78 78 0 0 1 1355 288 L1285 255 Z" fill="#0f766e"/>
    <rect x="1410" y="195" width="125" height="22" rx="11" fill="#14b8a6"/>
    <rect x="1410" y="242" width="95" height="22" rx="11" fill="#99f6e4"/>
    <rect x="1410" y="289" width="145" height="22" rx="11" fill="#5eead4"/>
  </g>
  <g>
    <rect x="385" y="590" width="1030" height="48" rx="24" fill="#74563d"/>
    <rect x="465" y="638" width="36" height="250" fill="#5a432f"/>
    <rect x="1299" y="638" width="36" height="250" fill="#5a432f"/>
    <rect x="680" y="470" width="440" height="250" rx="28" fill="#173b36"/>
    <rect x="720" y="510" width="360" height="160" rx="18" fill="#ecfdf5"/>
    <path d="M750 630 C805 570 850 620 900 570 C955 512 1000 610 1050 545" fill="none" stroke="#0f766e" stroke-width="18" stroke-linecap="round"/>
    <rect x="770" y="540" width="115" height="18" rx="9" fill="#99f6e4"/>
  </g>
  <g>
    <path d="M275 895 C255 805 295 700 370 662 C420 743 390 842 315 910 Z" fill="#0f766e"/>
    <path d="M240 895 C180 830 175 725 230 665 C305 720 315 825 260 910 Z" fill="#2dd4bf"/>
    <rect x="220" y="890" width="120" height="42" rx="14" fill="#6b4f39"/>
    <path d="M1530 895 C1515 790 1565 705 1640 650 C1690 748 1665 850 1570 918 Z" fill="#0f766e"/>
    <path d="M1490 900 C1430 835 1435 735 1498 678 C1560 755 1560 852 1515 920 Z" fill="#5eead4"/>
    <rect x="1482" y="895" width="130" height="42" rx="14" fill="#6b4f39"/>
  </g>
</svg>
